<?xml version="1.0" encoding="utf-8"?>
<!-- Generator: Adobe Illustrator 19.0.0, SVG Export Plug-In . SVG Version: 6.00 Build 0)  -->
<svg version="1.1" id="Layer_1" xmlns="http://www.w3.org/2000/svg" xmlns:xlink="http://www.w3.org/1999/xlink" x="0px" y="0px"
	 viewBox="-39 41 100 100" style="enable-background:new -39 41 100 100;" xml:space="preserve">
<style type="text/css">
	.st0{fill:#C4D3E3;}
	.st1{fill:none;}
	.st2{fill:#2081BF;}
	.st3{fill:#FFFFFF;}
</style>
<circle id="XMLID_14_" class="st0" cx="10.1" cy="90.2" r="40.4"/>
<line class="st1" x1="149.2" y1="82" x2="149" y2="82.6"/>
<rect id="XMLID_5_" x="-2.1" y="86.3" transform="matrix(-0.6047 -0.7965 0.7965 -0.6047 -52.0826 162.175)" class="st2" width="32.7" height="15.5"/>
<polygon id="XMLID_7_" class="st2" points="30.7,102.8 18.3,112.1 32.5,118 "/>
<rect x="-9.3" y="67" transform="matrix(0.6045 0.7966 -0.7966 0.6045 59.2495 29.8706)" class="st2" width="17.7" height="15.3"/>
<rect x="-2.8" y="64.3" transform="matrix(0.6045 0.7966 -0.7966 0.6045 56.3116 30.4345)" class="st3" width="0.6" height="15.3"/>
<rect x="-1.7" y="65.7" transform="matrix(0.6045 0.7966 -0.7966 0.6045 57.87 30.1374)" class="st3" width="0.6" height="15.3"/>
<rect x="-0.7" y="67.1" transform="matrix(0.6045 0.7966 -0.7966 0.6045 59.4283 29.8403)" class="st3" width="0.6" height="15.3"/>
<rect x="-9.4" y="59.3" transform="matrix(0.6045 0.7966 -0.7966 0.6045 50.9461 31.3686)" class="st3" width="6.6" height="15.3"/>
<polygon id="XMLID_1_" class="st3" points="32.3,116 30.6,117.2 32.5,118 "/>
</svg>
