<?xml version="1.0" encoding="utf-8"?>
<!-- Generator: Adobe Illustrator 19.0.0, SVG Export Plug-In . SVG Version: 6.00 Build 0)  -->
<svg version="1.1" id="Layer_1" xmlns="http://www.w3.org/2000/svg" xmlns:xlink="http://www.w3.org/1999/xlink" x="0px" y="0px"
	 viewBox="-39 41 100 100" style="enable-background:new -39 41 100 100;" xml:space="preserve">
<style type="text/css">
	.st0{fill:#C4D3E3;}
	.st1{fill:#FFFFFF;stroke:#2081BF;stroke-width:2;stroke-miterlimit:10;}
	.st2{fill:#2081BF;stroke:#2081BF;stroke-width:4;stroke-miterlimit:10;}
	.st3{fill:#C4D3E3;stroke:#2081BF;stroke-width:4;stroke-miterlimit:10;}
	.st4{fill:none;stroke:#2081BF;stroke-width:3;stroke-miterlimit:10;}
</style>
<circle id="XMLID_22_" class="st0" cx="10.6" cy="91.5" r="40.4"/>
<path id="XMLID_13_" class="st1" d="M22.6,119.9H-1.5c-4.7,0-8.6-3.9-8.6-8.6V80.6c0-4.7,3.9-8.6,8.6-8.6h24.2
	c4.7,0,8.6,3.9,8.6,8.6v30.7C31.3,116,27.4,119.9,22.6,119.9z"/>
<path id="XMLID_30_" class="st2" d="M17,76.7H5.3c-1.5,0-2.7-1.2-2.7-2.7l0,0c0-1.5,1.2-2.7,2.7-2.7h11.8c1.5,0,2.7,1.2,2.7,2.7l0,0
	C19.7,75.5,18.5,76.7,17,76.7z"/>
<circle id="XMLID_27_" class="st3" cx="11.6" cy="68.6" r="5.4"/>
<polyline id="XMLID_41_" class="st4" points="2.1,97.4 8.1,106.4 22.5,85.4 "/>
</svg>
